<?xml version="1.0" encoding="utf-8"?>
<svg xmlns="http://www.w3.org/2000/svg" viewBox="0 0 48 48" width="144" height="144">
  <path d="M24,4C12.972,4,4,12.972,4,24s8.972,20,20,20s20-8.972,20-20S35.028,4,24,4z M31.061,26.561l-6,6C24.768,32.854,24.384,33,24,33s-0.768-0.146-1.061-0.439l-6-6c-0.586-0.585-0.586-1.536,0-2.121c0.586-0.586,1.535-0.586,2.121,0l3.439,3.439V16.5c0-0.829,0.672-1.5,1.5-1.5s1.5,0.671,1.5,1.5v11.379l3.439-3.439c0.586-0.586,1.535-0.586,2.121,0C31.646,25.025,31.646,25.975,31.061,26.561z" />
</svg>