<?xml version="1.0" encoding="utf-8"?>
<svg xmlns="http://www.w3.org/2000/svg" viewBox="0 0 26 26" width="208" height="208">
  <path d="M1 13C1 19.601563 6.398438 25 13 25C19.601563 25 25 19.601563 25 13C25 6.398438 19.601563 1 13 1C6.398438 1 1 6.398438 1 13 Z M 17.800781 9.898438C18.5 13.300781 18.199219 17.398438 18.199219 17.601563C18.199219 17.800781 18.101563 17.898438 18 18C17.898438 18.101563 17.699219 18.199219 17.601563 18.199219C17.398438 18.199219 13.398438 18.5 9.898438 17.800781C9.601563 17.699219 9.398438 17.601563 9.300781 17.300781C9.199219 17 9.300781 16.800781 9.5 16.601563L11.300781 14.800781C11.300781 14.800781 7.199219 10.199219 7.199219 9.898438C7.101563 9.398438 7.5 8.601563 8 8.101563C8.5 7.601563 9.300781 7.199219 9.699219 7.300781C10 7.398438 14.699219 11.300781 14.699219 11.300781L16.5 9.5C16.699219 9.300781 17 9.199219 17.199219 9.300781C17.5 9.398438 17.699219 9.601563 17.800781 9.898438Z" />
</svg>